<svg xmlns="http://www.w3.org/2000/svg" viewBox="0 0 140.59 144.79" fill="none">
  <path class="bpl-favicon" d="M62.35,14.51s-.05-.09-.07-.14c-.36-.69-.74-1.35-1.16-1.98,0,0,0-.01-.01-.02-.84-1.28-1.8-2.46-2.87-3.53-.04-.04-.08-.08-.12-.12-.52-.52-1.07-1.01-1.63-1.48-.03-.02-.05-.04-.08-.06-1.15-.94-2.4-1.79-3.72-2.54-.07-.04-.14-.08-.22-.12-.64-.36-1.3-.69-1.99-1-.07-.03-.13-.06-.2-.09-1.39-.62-2.84-1.16-4.36-1.61-.11-.03-.22-.07-.33-.1-.73-.21-1.47-.4-2.23-.57-.11-.03-.23-.05-.34-.07-.78-.17-1.57-.32-2.37-.45,0,0-.01,0-.02,0-.8-.13-1.61-.23-2.43-.31-.15-.02-.29-.03-.44-.05-.79-.08-1.59-.14-2.4-.18-.15,0-.3-.01-.46-.02C34.05.02,33.21,0,32.35,0H6.13C2.74.02,0,2.76,0,6.15l.12,43.09c0,2.89,2.35,5.23,5.24,5.23h27.12c18.12-.02,32.78-8.33,32.77-26.88,0-5.12-1.04-9.45-2.9-13.07Z"/>
  <path class="bpl-favicon" d="M88.54,22.57c.11,1.48.19,2.99.19,4.57.02,34.83-29.2,46.49-55.83,46.5H9.93c-5.3.01-9.59,4.31-9.59,9.61l.03,51.94c0,5.3,4.3,9.59,9.6,9.59l43.99-.02c55.68-.03,86.65-19.38,86.63-64.34-.01-24.67-14.89-48.74-52.05-57.85Z"/>
  <style>
    .bpl-favicon { fill: #181715; }
    @media (prefers-color-scheme: dark) {
      .bpl-favicon { fill: #F2EEE6; }
    }
  </style>
</svg>